<svg width="1149" height="582" viewBox="0 0 1149 582" fill="none" xmlns="http://www.w3.org/2000/svg">
<g clip-path="url(#clip0)">
<g clip-path="url(#clip1)">
<mask id="mask0" mask-type="alpha" maskUnits="userSpaceOnUse" x="-5" y="-4" width="1178" height="594">
<path d="M-2.95117 39.5489C-2.95117 17.1543 15.3935 -1 38.0227 -1H1170.95V587.973H-2.95117V39.5489Z" fill="url(#paint0_linear)"/>
<path d="M1171.97 -0.99995V-2.01367H1170.95H38.0202C14.8252 -2.01367 -3.97803 16.5945 -3.97803 39.5489V587.973V588.986H-2.95368H1170.95H1171.97V587.973V-0.99995Z" stroke="url(#paint1_linear)" stroke-opacity="0.5" stroke-width="2"/>
</mask>
<g mask="url(#mask0)">
<path opacity="0.1" d="M538.124 277.742C396.407 223.785 276.024 57.2992 119.72 180.73C35.0803 247.57 -104.188 436.666 -66.1156 536.986C-2.80448 703.81 81.0457 872.185 168.206 922.268C346.87 1024.94 662.356 1007.93 897.476 922.268C1085.57 853.738 1157.39 517.932 1187.72 368.404L1205.18 286.434C1206.82 278.743 1208.69 271.216 1210.41 263.544C1220.48 218.85 1249.29 55.7726 1143.22 21.1754C1069.31 -2.93496 1011.17 -12.1069 958.688 54.8589C893.584 137.924 816.412 229.305 714.235 258.051C650.538 275.971 599.929 301.274 538.124 277.742Z" fill="url(#paint2_linear)"/>
<path opacity="0.1" d="M378.626 344.568C281.271 331.451 125.579 459.337 59.9032 524.921C-85.6952 668.918 -0.219517 895.608 217.816 984.715C435.851 1073.82 682.862 1055.29 1012.45 946.221C1175.47 892.275 1274.34 737.823 1329.6 588.958C1383.31 444.317 1284.14 298.041 1149.11 374.772C1113.63 394.931 1077.38 416.901 1039.25 433.675C916.109 487.852 816.87 476.447 714.009 393.755C611.149 311.063 500.32 360.963 378.626 344.568Z" fill="url(#paint3_linear)"/>
</g>
</g>
</g>
<defs>
<linearGradient id="paint0_linear" x1="514.857" y1="228.6" x2="684.305" y2="223.452" gradientUnits="userSpaceOnUse">
<stop stop-color="#EBEEF4"/>
<stop offset="1" stop-color="#EBEEF4" stop-opacity="0"/>
</linearGradient>
<linearGradient id="paint1_linear" x1="583.998" y1="-0.99995" x2="583.998" y2="587.973" gradientUnits="userSpaceOnUse">
<stop stop-color="white"/>
<stop offset="1" stop-color="white" stop-opacity="0.1"/>
</linearGradient>
<linearGradient id="paint2_linear" x1="881.25" y1="3.22508" x2="599.532" y2="1154.1" gradientUnits="userSpaceOnUse">
<stop stop-color="#2D81FF"/>
<stop offset="1" stop-color="#FF00C7"/>
</linearGradient>
<linearGradient id="paint3_linear" x1="795.338" y1="421.782" x2="795.338" y2="942.969" gradientUnits="userSpaceOnUse">
<stop stop-color="#7B00A6"/>
<stop offset="1" stop-color="#00C2FF"/>
</linearGradient>
<clipPath id="clip0">
<rect width="1149" height="582" fill="white"/>
</clipPath>
<clipPath id="clip1">
<rect width="1178" height="591" fill="white" transform="translate(-5 -1)"/>
</clipPath>
</defs>
</svg>
